HIERARCHY
ROOT Hips
{
	OFFSET -0.001795 -0.223333 0.028219
	CHANNELS 6 Xposition Yposition Zposition Zrotation Yrotation Xrotation 
	JOINT LeftUpLeg
	{
		OFFSET 0.069520 -0.091406 -0.006815
		CHANNELS 3 Zrotation Yrotation Xrotation
		JOINT LeftLeg
		{
			OFFSET 0.034277 -0.375199 -0.004496
			CHANNELS 3 Zrotation Yrotation Xrotation
			JOINT LeftFoot
			{
				OFFSET -0.013596 -0.397961 -0.043693
				CHANNELS 3 Zrotation Yrotation Xrotation
				JOINT LeftToe
				{
					OFFSET 0.026358 -0.055791 0.119288
					CHANNELS 3 Zrotation Yrotation Xrotation
					End Site
					{
						OFFSET 0.000000 0.000000 0.000000
					}
				}
			}
		}
	}
	JOINT RightUpLeg
	{
		OFFSET -0.067670 -0.090522 -0.004320
		CHANNELS 3 Zrotation Yrotation Xrotation
		JOINT RightLeg
		{
			OFFSET -0.038290 -0.382569 -0.008850
			CHANNELS 3 Zrotation Yrotation Xrotation
			JOINT RightFoot
			{
				OFFSET 0.015774 -0.398415 -0.042312
				CHANNELS 3 Zrotation Yrotation Xrotation
				JOINT RightToe
				{
					OFFSET -0.025372 -0.048144 0.123348
					CHANNELS 3 Zrotation Yrotation Xrotation
					End Site
					{
						OFFSET 0.000000 0.000000 0.000000
					}
				}
			}
		}
	}
	JOINT Spine
	{
		OFFSET -0.002533 0.108963 -0.026696
		CHANNELS 3 Zrotation Yrotation Xrotation
		JOINT Spine1
		{
			OFFSET 0.005487 0.135180 0.001092
			CHANNELS 3 Zrotation Yrotation Xrotation
			JOINT Spine2
			{
				OFFSET 0.001457 0.052922 0.025425
				CHANNELS 3 Zrotation Yrotation Xrotation
				JOINT Neck
				{
					OFFSET -0.002778 0.213870 -0.042857
					CHANNELS 3 Zrotation Yrotation Xrotation
					JOINT Head
					{
						OFFSET 0.005152 0.064970 0.051349
						CHANNELS 3 Zrotation Yrotation Xrotation
						End Site
						{
							OFFSET 0.000000 0.000000 0.000000
						}
					}
				}
				JOINT LeftShoulder
				{
					OFFSET 0.078845 0.121749 -0.034090
					CHANNELS 3 Zrotation Yrotation Xrotation
					JOINT LeftArm
					{
						OFFSET 0.090977 0.030469 -0.008868
						CHANNELS 3 Zrotation Yrotation Xrotation
						JOINT LeftForeArm
						{
							OFFSET 0.259612 -0.012772 -0.027456
							CHANNELS 3 Zrotation Yrotation Xrotation
							JOINT LeftHand
							{
								OFFSET 0.249234 0.008986 -0.001171
								CHANNELS 3 Zrotation Yrotation Xrotation
								End Site
								{
									OFFSET 0.000000 0.000000 0.000000
								}
							}
						}
					}
				}
				JOINT RightShoulder
				{
					OFFSET -0.081759 0.118833 -0.038615
					CHANNELS 3 Zrotation Yrotation Xrotation
					JOINT RightArm
					{
						OFFSET -0.096012 0.032551 -0.009143
						CHANNELS 3 Zrotation Yrotation Xrotation
						JOINT RightForeArm
						{
							OFFSET -0.253742 -0.013329 -0.021401
							CHANNELS 3 Zrotation Yrotation Xrotation
							JOINT RightHand
							{
								OFFSET -0.255298 0.007772 -0.005559
								CHANNELS 3 Zrotation Yrotation Xrotation
								End Site
								{
									OFFSET 0.000000 0.000000 0.000000
								}
							}
						}
					}
				}
			}
		}
	}
}
MOTION
Frames: 16
Frame Time: 0.050000
0.000000 0.866730 0.000000 -2.511803 -1.776540 -0.702942 -6.118169 -1.981883 -14.085905 0.246926 -1.300458 39.432857 7.445322 11.033254 -24.288452 0.000000 0.000000 0.000000 -1.991881 1.871277 -21.208891 11.208329 -7.582789 90.102881 -4.714903 -12.765064 5.046654 0.000000 0.000000 0.000000 -1.809751 -0.295180 13.031140 -1.597310 0.756760 2.727704 -1.108569 4.438970 6.998135 5.964760 -2.201989 -15.533394 0.000000 0.000000 0.000000 -20.982232 -0.010046 -3.041405 -38.482154 -0.771681 -4.123476 -122.792492 -64.949454 101.951641 0.000000 0.000000 0.000000 12.082551 -0.497804 -0.679748 47.336666 0.644949 -4.620985 127.436856 63.317283 109.610684 0.000000 0.000000 0.000000 
-0.001086 0.895189 -0.005174 -4.186964 -0.992605 0.161052 -3.145051 -0.452955 -4.124579 1.122175 -1.467743 30.587115 6.616530 10.034117 -17.445209 0.000000 0.000000 0.000000 -0.801111 2.872827 -29.484410 12.990743 -9.662515 85.006206 -7.860089 -19.290235 -0.710094 0.000000 0.000000 0.000000 1.776091 -0.671631 11.613032 -0.522589 0.211848 2.016504 -4.066576 -0.825472 7.246190 7.327088 -3.190771 -17.667381 0.000000 0.000000 0.000000 -17.582373 -0.170475 -1.419769 -41.868407 -5.323432 -3.429436 -144.047685 -64.524043 132.256184 0.000000 0.000000 0.000000 10.909927 -4.110131 -2.849789 46.959399 -7.992138 -7.627503 119.301171 51.319524 81.323361 0.000000 0.000000 0.000000 
-0.004212 0.939655 -0.006184 -5.675279 -1.729881 1.805385 -0.193140 0.350044 3.707973 1.077602 -0.966350 20.657467 3.118813 5.541509 -3.334653 0.000000 0.000000 0.000000 1.072972 4.285433 -36.727907 13.957425 -8.095232 69.838481 -8.374831 -20.532825 6.878605 0.000000 0.000000 0.000000 4.357040 -0.826929 9.623156 0.695832 -0.278162 -1.774192 -5.852493 -4.567434 10.699569 5.357152 -2.917156 -14.682628 0.000000 0.000000 0.000000 -18.888463 -2.127400 0.666835 -39.081625 -7.366977 -3.206783 -151.234253 -64.122047 145.401918 0.000000 0.000000 0.000000 12.311255 -6.755837 -4.820988 40.792430 -12.720764 -8.087759 116.379249 47.390566 69.861213 0.000000 0.000000 0.000000 
-0.008887 0.985142 -0.002849 -6.522392 -3.275236 4.313675 1.381571 0.739479 9.163521 1.266990 -0.754286 15.501673 0.894456 6.014929 12.945170 0.000000 0.000000 0.000000 4.970220 5.499644 -36.093056 9.519182 -2.605584 46.530734 -6.661088 -17.741588 11.696812 0.000000 0.000000 0.000000 4.982720 -0.645403 6.244535 1.799051 -0.831213 -0.385596 -4.940942 -6.802808 8.489575 5.005877 -3.169272 -11.903009 0.000000 0.000000 0.000000 -18.020504 0.761553 -0.217822 -40.797353 -6.572101 -3.542013 -149.527030 -61.498422 143.144919 0.000000 0.000000 0.000000 9.568294 -7.555730 -4.950732 39.105647 -15.861838 -8.486717 114.024639 46.108053 63.256916 0.000000 0.000000 0.000000 
-0.013402 1.011147 0.002546 -5.920438 -3.479981 5.621768 1.818690 0.861524 11.093391 0.561184 -0.653053 18.875110 -1.399191 4.455449 20.160194 0.000000 0.000000 0.000000 7.812449 5.376657 -31.365305 4.322416 -0.215099 21.257805 -2.507742 -11.294892 16.425117 0.000000 0.000000 0.000000 4.770196 -0.393525 3.108388 1.729186 -0.824289 0.496320 -3.852463 -7.436655 8.791013 4.566860 -3.180745 -9.317050 0.000000 0.000000 0.000000 -18.033231 0.632975 0.130370 -40.969815 -6.298606 -3.748510 -144.776754 -60.800343 136.199443 0.000000 0.000000 0.000000 7.201878 -9.198464 -5.074565 40.624527 -19.722590 -10.264144 110.265858 46.577946 59.603007 0.000000 0.000000 0.000000 
-0.016843 1.009535 0.009308 -5.112362 -2.388488 5.843971 2.602354 0.573973 8.878623 0.284758 -0.939690 31.610455 -1.369271 4.520243 19.564752 0.000000 0.000000 0.000000 8.774953 4.797386 -27.721406 3.246883 -0.176755 9.997086 -1.417298 -9.114343 15.751202 0.000000 0.000000 0.000000 5.145095 -0.301980 1.734075 3.457754 -1.679038 1.046287 -5.109967 -7.624441 8.836585 3.488092 -2.534741 -7.271703 0.000000 0.000000 0.000000 -19.604945 0.888874 -0.165398 -39.535854 -4.246533 -4.251455 -139.323710 -59.138298 125.641999 0.000000 0.000000 0.000000 5.565681 -9.217042 -4.579147 42.389210 -20.627955 -11.180403 111.598729 48.262566 63.558155 0.000000 0.000000 0.000000 
-0.019983 0.978834 0.016621 -4.553555 -2.474606 3.453132 3.224213 0.332595 5.920859 -0.065018 -1.186015 50.183828 -2.036395 2.073896 14.704106 0.000000 0.000000 0.000000 9.125888 4.524301 -25.662451 4.231394 -0.284026 18.403695 -2.353093 -9.615477 11.222813 0.000000 0.000000 0.000000 5.602480 -0.345316 2.559197 2.868267 -1.477408 2.420859 -4.875958 -5.011944 8.698693 4.445013 -3.161820 -6.352688 0.000000 0.000000 0.000000 -19.090623 0.907094 -0.827626 -38.889121 -1.527530 -4.803908 -129.284549 -59.903666 110.467396 0.000000 0.000000 0.000000 7.569961 -9.787546 -5.141453 43.702170 -19.367329 -11.025780 109.929894 49.940415 65.843771 0.000000 0.000000 0.000000 
-0.023424 0.931806 0.020114 -5.108328 -4.959742 0.121465 4.407931 0.030736 0.688407 -2.010221 1.129543 69.146991 -1.527551 3.471343 16.432908 0.000000 0.000000 0.000000 11.533639 4.489259 -22.406395 4.809752 -0.038874 32.318128 -4.670252 -12.654877 3.884987 0.000000 0.000000 0.000000 6.833798 -0.586505 5.475838 1.716877 -0.911407 3.066464 -4.105317 -1.137613 9.676898 5.252972 -3.116672 -10.757250 0.000000 0.000000 0.000000 -20.766615 1.858989 -2.127476 -38.492113 1.646605 -5.568721 -121.037682 -58.908433 96.898397 0.000000 0.000000 0.000000 11.703756 -9.444977 -5.669669 42.422951 -11.646792 -8.143648 109.644140 54.164183 72.752438 0.000000 0.000000 0.000000 
-0.024865 0.896317 0.013904 -4.999334 -6.900365 -1.550915 5.194175 -0.265520 -6.855258 -2.151974 2.700768 79.525155 0.653279 4.141397 7.223013 0.000000 0.000000 0.000000 12.591930 3.796902 -18.238201 3.247331 1.222656 39.459482 -4.911766 -10.730457 -4.785735 0.000000 0.000000 0.000000 7.398791 -0.847688 8.483253 0.625470 -0.344634 3.848050 -3.009999 3.113861 9.843945 6.116346 -2.935214 -14.169193 0.000000 0.000000 0.000000 -21.220356 2.762335 -3.552266 -39.814644 5.194522 -6.597145 -111.073657 -60.159842 85.003592 0.000000 0.000000 0.000000 11.200431 -5.012615 -3.134543 44.352833 -3.136510 -5.768448 115.930567 61.258320 90.677298 0.000000 0.000000 0.000000 
-0.022885 0.903659 0.004871 -3.707094 -8.228267 -1.629339 4.800777 -0.656647 -18.129117 -3.609221 5.099785 80.232549 3.480550 8.722385 5.374681 0.000000 0.000000 0.000000 10.598281 1.886184 -10.753825 0.670634 2.357413 36.062429 -5.118137 -9.136003 -9.438531 0.000000 0.000000 0.000000 6.579777 -0.876477 9.676517 -1.089704 0.548018 2.065776 -1.273727 8.616852 10.700538 6.759480 -2.559414 -16.122531 0.000000 0.000000 0.000000 -18.579329 3.870004 -4.803241 -40.988277 9.970995 -8.088920 -108.535481 -56.677952 75.884023 0.000000 0.000000 0.000000 10.149758 -5.243950 -2.586214 45.470173 3.394800 -3.763564 123.116609 62.292937 104.063417 0.000000 0.000000 0.000000 
-0.018669 0.939247 0.001169 -1.438790 -10.160822 0.373499 2.864646 -1.191194 -27.972555 -4.803767 5.931708 68.374226 4.100250 10.675958 10.735183 0.000000 0.000000 0.000000 6.247825 0.101474 -2.159071 -2.392955 2.545102 25.365883 -3.171133 -6.230869 -3.113009 0.000000 0.000000 0.000000 4.731662 -0.620554 7.807941 -2.830794 1.345260 -0.561374 0.586503 14.180196 12.721975 7.975427 -3.081717 -15.025695 0.000000 0.000000 0.000000 -16.187722 7.730535 -7.004659 -38.697766 13.384317 -8.546328 -113.461848 -50.003001 70.665479 0.000000 0.000000 0.000000 6.559571 -5.722981 -2.255610 49.038897 5.746795 -2.993280 129.668765 60.828951 114.993760 0.000000 0.000000 0.000000 
-0.013836 0.979601 0.003362 -0.545268 -8.779977 3.041363 -0.783672 -2.379652 -31.442679 -2.698903 1.898089 48.408011 4.476161 11.347578 12.898085 0.000000 0.000000 0.000000 3.430840 -0.620912 3.912925 -3.017086 1.730335 17.143184 -0.540785 -5.700952 8.588804 0.000000 0.000000 0.000000 3.703490 -0.350109 4.017353 -3.696554 1.754774 -0.500988 1.393246 17.876395 10.802337 10.382322 -5.094645 -11.437367 0.000000 0.000000 0.000000 -13.433714 8.008846 -7.073132 -34.745200 15.941748 -8.035259 -118.922989 -46.184160 68.891016 0.000000 0.000000 0.000000 3.827436 -5.772177 -2.093127 50.990875 3.534031 -3.246520 133.643763 56.154609 118.994892 0.000000 0.000000 0.000000 
-0.008482 1.004523 0.008997 -0.568601 -8.263219 3.773209 -1.173876 -2.287449 -27.600777 -1.155740 0.112883 23.954051 3.013682 8.781171 12.797515 0.000000 0.000000 0.000000 2.378121 -0.971357 7.985150 -2.576592 1.725879 18.406676 0.653835 -5.367994 13.591046 0.000000 0.000000 0.000000 3.975909 -0.242063 2.176492 -4.542210 2.185578 0.124804 0.892896 20.815479 9.397396 12.408977 -6.671529 -10.151011 0.000000 0.000000 0.000000 -10.807440 6.568820 -6.016275 -34.556355 17.460128 -8.411512 -123.926337 -43.959631 69.283470 0.000000 0.000000 0.000000 3.181779 -5.311171 -1.838765 48.612535 1.853452 -3.558709 135.075720 51.660571 118.638129 0.000000 0.000000 0.000000 
-0.002440 1.000463 0.015676 -1.352952 -6.520843 3.275344 -2.373141 -2.524784 -25.695833 0.829239 -0.517107 13.794545 0.903208 4.827142 9.879751 0.000000 0.000000 0.000000 2.944484 -1.128370 8.692684 -1.539042 2.375557 29.206031 -0.398353 -6.978362 13.659042 0.000000 0.000000 0.000000 4.348206 -0.199942 1.531756 -2.666284 1.307241 1.252386 -0.887865 21.509062 9.037788 12.843893 -6.449511 -11.329913 0.000000 0.000000 0.000000 -10.164408 6.397139 -5.973444 -35.076230 17.288478 -8.510920 -126.551585 -42.852587 69.417581 0.000000 0.000000 0.000000 3.755394 -5.713985 -1.918394 46.583389 -0.252822 -4.238055 136.175913 48.149390 117.656651 0.000000 0.000000 0.000000 
0.003445 0.969981 0.021153 -1.675923 -5.023817 1.808084 -5.739492 -3.278419 -25.109803 2.777401 -1.329571 20.881764 -0.979628 1.427210 8.859685 0.000000 0.000000 0.000000 2.280814 -0.679558 5.237796 1.309969 2.663318 49.192199 -2.225693 -8.897643 9.626801 0.000000 0.000000 0.000000 3.137538 -0.210021 2.437711 -1.515255 0.757788 3.878240 -1.675431 18.655849 7.049898 13.884588 -6.979626 -12.490414 0.000000 0.000000 0.000000 -13.075788 6.682106 -6.896980 -33.266016 16.550321 -7.574477 -129.095395 -45.917958 78.972566 0.000000 0.000000 0.000000 5.652046 -6.574829 -2.269885 45.242346 -2.750526 -5.075603 134.870792 45.017066 108.814720 0.000000 0.000000 0.000000 
0.006509 0.924158 0.018853 -1.726139 -5.048923 -0.356959 -7.174369 -3.454282 -23.818927 2.503209 -1.667787 33.206903 1.868858 2.886342 -3.091701 0.000000 0.000000 0.000000 0.022955 0.280104 -2.868032 5.907939 0.843895 71.455760 -3.302093 -10.975702 10.091890 0.000000 0.000000 0.000000 1.644803 -0.378621 6.976115 -1.506238 0.731757 1.230764 -1.137670 15.085941 9.389233 12.249317 -4.930858 -17.251548 0.000000 0.000000 0.000000 -17.603969 6.807924 -7.853157 -31.992238 11.352066 -5.915496 -129.132289 -50.135830 87.397912 0.000000 0.000000 0.000000 7.396068 -8.125797 -3.121746 45.795807 -4.850212 -6.289548 128.576438 45.482326 96.764546 0.000000 0.000000 0.000000 
